<?xml version="1.0" encoding="utf-8"?>
<!-- Generator: Adobe Illustrator 16.2.1, SVG Export Plug-In . SVG Version: 6.00 Build 0)  -->
<!DOCTYPE svg PUBLIC "-//W3C//DTD SVG 1.1//EN" "http://www.w3.org/Graphics/SVG/1.1/DTD/svg11.dtd">
<svg version="1.1" id="Layer_1" xmlns="http://www.w3.org/2000/svg" xmlns:xlink="http://www.w3.org/1999/xlink" x="0px" y="0px"
	 width="448px" height="832px" viewBox="0 0 448 832" enable-background="new 0 0 448 832" xml:space="preserve">
<g>
	<rect fill="none" width="448" height="832"/>
	<g>
		<path fill="#444444" d="M48,158c0,1.1-0.9,2-2,2h-8c-1.1,0-2-0.9-2-2v-32c0-1.1,0.9-2,2-2h8c1.1,0,2,0.9,2,2V158z"/>
		<path fill="#444444" d="M48,226c0,1.1-0.9,2-2,2h-8c-1.1,0-2-0.9-2-2v-24c0-1.1,0.9-2,2-2h8c1.1,0,2,0.9,2,2V226z"/>
		<path fill="#444444" d="M48,290c0,1.1-0.9,2-2,2h-8c-1.1,0-2-0.9-2-2v-24c0-1.1,0.9-2,2-2h8c1.1,0,2,0.9,2,2V290z"/>
		<path fill="#444444" d="M348,22c0,1.1-0.9,2-2,2h-56c-1.1,0-2-0.9-2-2v-8c0-1.1,0.9-2,2-2h56c1.1,0,2,0.9,2,2V22z"/>
		<path fill="#444444" d="M408,756c0,28.6-23.4,52-52,52H92c-28.6,0-52-23.4-52-52V68c0-28.6,23.4-52,52-52h264
			c28.6,0,52,23.4,52,52V756z"/>
		<path fill="#666666" d="M356,18c27.57,0,50,22.43,50,50v688c0,27.57-22.43,50-50,50H92c-27.57,0-50-22.43-50-50V68
			c0-27.57,22.43-50,50-50H356 M356,16H92c-28.6,0-52,23.4-52,52v688c0,28.6,23.4,52,52,52h264c28.6,0,52-23.4,52-52V68
			C408,39.4,384.6,16,356,16L356,16z"/>
		<path fill="#333333" d="M388,696c0,2.2-1.8,4-4,4H64c-2.2,0-4-1.8-4-4V128c0-2.2,1.8-4,4-4h320c2.2,0,4,1.8,4,4V696z"/>
		<g>
			<circle fill="#333333" cx="224" cy="52" r="8"/>
		</g>
		<g>
			<circle fill="#222222" cx="224" cy="52" r="4"/>
		</g>
		<path fill="#333333" d="M256,84c0,4.4-3.6,8-8,8h-48c-4.4,0-8-3.6-8-8l0,0c0-4.4,3.6-8,8-8h48C252.4,76,256,79.6,256,84L256,84z"
			/>
		<path fill="#222222" d="M252,84c0,2.2-1.8,4-4,4h-48c-2.2,0-4-1.8-4-4l0,0c0-2.2,1.8-4,4-4h48C250.2,80,252,81.8,252,84L252,84z"
			/>
		<g>
			<circle fill="#333333" cx="224" cy="752" r="36"/>
		</g>
	</g>
</g>
<rect x="64.5" y="652.5" fill="#DDDDDD" width="320" height="44"/>
</svg>
