<?xml version="1.0" encoding="utf-8"?>
<!-- Generator: Adobe Illustrator 16.2.1, SVG Export Plug-In . SVG Version: 6.00 Build 0)  -->
<!DOCTYPE svg PUBLIC "-//W3C//DTD SVG 1.1//EN" "http://www.w3.org/Graphics/SVG/1.1/DTD/svg11.dtd">
<svg version="1.1" id="Layer_1" xmlns="http://www.w3.org/2000/svg" xmlns:xlink="http://www.w3.org/1999/xlink" x="0px" y="0px"
	 width="2880px" height="1632px" viewBox="0 0 2880 1632" enable-background="new 0 0 2880 1632" xml:space="preserve">
<g>
	<rect fill="none" width="2880" height="1632"/>
	<g>
		<path fill="#444444" d="M2592,1506c0,49.5-40.5,90-90,90H378c-49.5,0-90-40.5-90-90V90c0-49.5,40.5-90,90-90h2124
			c49.5,0,90,40.5,90,90V1506z"/>
		<path fill="#999999" d="M2502,6c46.316,0,84,37.682,84,84v1416c0,46.318-37.684,84-84,84H378c-46.317,0-84-37.682-84-84V90
			c0-46.318,37.683-84,84-84H2502 M2502,0H378c-49.5,0-90,40.5-90,90v1416c0,49.5,40.5,90,90,90h2124c49.5,0,90-40.5,90-90V90
			C2592,40.5,2551.5,0,2502,0L2502,0z"/>
		<rect x="352" y="88" fill="#333333" width="2176" height="1360"/>
		<rect x="24" y="1548" fill="#BBBBBB" width="2832" height="48"/>
		<path fill="#999999" d="M1271.998,1584h324c19.801,0,36-16.199,36-36h-396C1235.998,1567.801,1252.198,1584,1271.998,1584z"/>
		<path fill="#999999" d="M24,1596c33,33,127.5,36,264,36h2304c136.5,0,231-3,264-36H24z"/>
		<rect x="360.5" y="96.5" fill="#DDDDDD" width="2160" height="64"/>
	</g>
</g>
</svg>
